# xmcd
#
# Track frame offsets:
#	150
#	16730
#	32937
#	49630
#	66277
#	87677
#	106690
#	122020
#	138837
#	152367
#	171285
#	188497
#	202645
#
# Disc length: 2934 seconds
#
# Revision: 82681361
# Processed by: cddbd v1.5.1PL0 Copyright (c) Steve Scherf et al.
# Submitted via: EasyCDDAExtractor 8.0.2.1
#
DISCID=9b0b740d
DTITLE=Various Artist - You Got Served Soundtrack
DYEAR=2003
DGENRE=Hip-Hop
TTITLE0=B2K - Badaboom (Featuring Fabolous)
TTITLE1=B2K - Do That Thing (Featuring Lil' Kim)
TTITLE2=B2K - Take It to the Floor
TTITLE3=B2K - Sprung
TTITLE4=B2K - Out the Hood
TTITLE5=B2K - Streets Is Callin'
TTITLE6=B2K - Fizzo Got Flow
TTITLE7=Jhene - Happy (Featuring B2K)
TTITLE8=Marques Houston - Smile
TTITLE9=O'Ryan - Smellz Like A Party (Featuring Rufus Blaq)
TTITLE10=ATL - The One
TTITLE11=XSO Drive - Can I Get It Back (Featuring Red Cafe)
TTITLE12=M.O.P. - Ante Up (Robbin Hoodz Theory) (Featuring Funkmaster Flex)
EXTD=
EXTT0=
EXTT1=
EXTT2=
EXTT3=
EXTT4=
EXTT5=
EXTT6=
EXTT7=
EXTT8=
EXTT9=
EXTT10=
EXTT11=
EXTT12=
PLAYORDER=
